<?xml version="1.0" encoding="utf-8" ?><svg xmlns="http://www.w3.org/2000/svg" xmlns:xlink="http://www.w3.org/1999/xlink" width="160" height="160" viewBox="0 0 160 160"><path fill="#D4AF37" d="M1.46809 3.84695C1.68483 3.83377 1.90175 3.82371 2.11878 3.81675C8.23173 3.64284 16.6888 4.02811 23.08 4.03569L77.9215 3.98482C82.9488 3.95762 88.1222 3.79547 93.1348 4.07141C94.0134 4.11978 93.8388 11.1217 93.8605 12.1032C93.8454 16.1189 93.4704 25.9107 93.803 29.3417C93.6426 34.2398 93.7807 40.0176 93.7735 44.9636L93.7887 80.2181C93.7813 85.7272 94.1489 95.0837 93.5711 100.103C99.765 94.626 106.019 89.2171 112.332 83.8777C116.689 80.2081 121.121 76.5614 125.275 72.6669C126.106 71.8883 126.97 70.4021 126.222 69.3499C124.622 68.6824 118.861 69.1436 116.629 69.145C116.492 67.2861 116.554 65.9916 116.637 64.1433C120.963 64.4653 145.555 63.6164 148.023 64.6278C148.467 65.4467 148.31 67.9697 148.309 69.0055C145.287 69.1268 141.93 68.343 139.013 69.282C135.161 70.5216 116.725 87.2542 112.396 91.0354C116.37 96.723 120.98 102.789 125.078 108.485L138.983 127.655C141.36 130.906 147.134 139.406 149.976 141.452C153.095 141.76 155.902 141.367 159.046 141.52C158.95 142.737 158.965 145.558 157.926 146.245C154.758 146.619 118.109 146.633 117.059 146.059C116.361 144.87 116.711 142.83 116.871 141.503C119.194 141.431 126.495 142.224 127.815 140.729C127.362 138.724 122.571 132.539 121.204 130.682C116.938 124.818 112.703 118.931 108.499 113.022C106.408 110.143 101.529 103.837 100.198 101.006C98.8062 102.773 95.835 105.094 94.0216 106.661C93.9839 106.871 93.9507 107.082 93.9222 107.293C93.7975 108.175 93.6833 114.019 93.7645 114.845C94.1247 118.508 92.957 138.949 94.7014 141.256C96.5208 142.146 102.766 141.437 105.088 141.265C105.226 142.853 105.19 144.312 105.371 146.079C101.526 146.607 94.7661 146.466 90.7665 146.47L67.1546 146.46C67.0238 145.009 67.1107 142.876 67.1286 141.372C69.6759 141.524 74.627 142.387 76.3446 140.246C76.8226 138.53 76.5781 124.311 76.5796 121.364L76.5501 66.9783L76.5545 35.9388C76.546 31.5946 76.9094 26.0536 76.3975 22.0049C75.4842 14.7819 70.0753 9.68144 62.9354 8.96323C60.4665 8.71487 58.3736 8.40166 55.8809 8.45899C52.6569 8.53314 48.9603 7.36985 48.9701 12.1359C48.9809 17.4851 49.0408 22.7676 49.044 28.0805L49.0238 63.7585L48.9789 82.9847C48.9759 85.5197 48.8324 90.4098 49.2232 92.8199C49.9749 97.4553 57.4178 93.3193 60.0407 94.9886C60.7581 95.8209 60.6262 98.0434 60.6485 99.2397C57.2895 99.6063 50.0543 99.5315 46.3331 99.5068C38.6479 99.4557 30.1322 99.6773 22.5121 99.3206C22.3908 97.9128 22.4272 96.2767 22.4245 94.8472C24.5956 94.7403 26.8879 94.8011 29.058 94.9267C32.5683 95.13 33.9082 93.3816 33.9519 89.9982C34.0172 84.9428 33.9647 79.8844 33.9647 74.8291L33.9419 42.9673L33.969 21.368C33.9727 18.4344 34.1347 12.278 33.7793 9.52702C33.0834 8.65273 32.2169 8.50682 31.1146 8.47109C20.4863 8.12656 8.37394 8.98426 6.40223 21.976C6.12779 23.7843 6.24256 26.435 5.66246 28.0649C4.66289 28.9227 2.83148 28.9596 1.80461 27.9636C1.09971 26.3693 1.38899 6.74952 1.46809 3.84695Z"/></svg>